:FULLY-SPECIFIED
:DEGREES
3555
root 2.20146 15.5809 -2.82313 5446.19 -95.6956 -5443.95
lowerback 4.73112 0.663521 -8.08255
upperback -1.72173 0.370708 0.46901
thorax -4.52331 0.419526 5.00263
lowerneck -15.9108 1.39265 1.92915
upperneck 19.8135 2.02732 -3.31036
head 8.88441 0.675077 -1.20832
rclavicle 1.19271e-014 -1.19271e-015
rhumerus -38.2628 -14.6322 -78.9735
rradius 16.8637
rwrist 13.8266
rhand -28.1321 -18.0996
rfingers 7.12502
rthumb -1.51347 -48.074
lclavicle 1.19271e-014 -1.19271e-015
lhumerus -21.138 -11.4378 93.5553
lradius 33.1578
lwrist 14.3326
lhand -32.5113 16.1747
lfingers 7.12502
lthumb -5.74244 46.0769
rfemur -31.4603 -0.177575 18.0979
rtibia 52.2073
rfoot -18.1083 -23.738
rtoes -9.24382
lfemur -3.13048 -6.34591 -31.229
ltibia 20.3278
lfoot -15.5458 9.19709
ltoes -5.73272
3556
root 2.22486 15.5726 -2.82551 5446.44 -95.8291 -5443.96
lowerback 4.65675 0.730744 -8.17876
upperback -1.80021 0.454724 0.426981
thorax -4.57746 0.4675 5.00527
lowerneck -15.9085 1.34181 1.8829
upperneck 19.7246 1.95888 -3.26507
head 8.85056 0.646235 -1.19289
rclavicle -9.14409e-015 2.76311e-014
rhumerus -37.775 -14.8997 -79.0587
rradius 16.6159
rwrist 14.7401
rhand -28.488 -17.7373
rfingers 7.12502
rthumb -1.85727 -47.7089
lclavicle -9.14409e-015 2.76311e-014
lhumerus -21.2106 -11.4764 93.5439
lradius 33.0863
lwrist 14.2014
lhand -32.4392 16.2603
lfingers 7.12502
lthumb -5.67277 46.1644
rfemur -32.0531 0.168847 18.1246
rtibia 50.0009
rfoot -17.7132 -23.7455
rtoes -9.1389
lfemur -2.42984 -6.27031 -31.3938
ltibia 19.5251
lfoot -15.4696 9.15772
ltoes -6.17503
3557
root 2.24319 15.5682 -2.83075 5447.54 -95.818 -5444.87
lowerback 4.59293 0.756831 -8.26243
upperback -1.84878 0.486787 0.414689
thorax -4.59854 0.48779 5.03682
lowerneck -15.9216 1.30092 1.84298
upperneck 19.6667 1.90495 -3.22967
head 8.83082 0.622984 -1.18029
rclavicle -1.98785e-015 -2.24627e-014
rhumerus -37.2707 -14.9389 -79.27
rradius 16.562
rwrist 15.0349
rhand -28.53 -17.7414
rfingers 7.12502
rthumb -1.89784 -47.7127
lclavicle -1.98785e-015 -2.24627e-014
lhumerus -21.3317 -11.6544 93.6187
lradius 33.0293
lwrist 14.3739
lhand -32.5086 16.2216
lfingers 7.12502
lthumb -5.73982 46.1238
rfemur -32.4748 0.352881 18.1765
rtibia 47.7707
rfoot -17.2695 -23.4371
rtoes -9.44483
lfemur -1.56788 -6.10516 -31.4931
ltibia 18.6254
lfoot -15.3391 9.04682
ltoes -7.10291
3558
root 2.26088 15.5723 -2.83808 5448.5 -95.81 -5445.65
lowerback 4.52967 0.796044 -8.31549
upperback -1.88091 0.537714 0.374258
thorax -4.60464 0.51487 5.0198
lowerneck -15.9173 1.25593 1.86121
upperneck 19.5684 1.83352 -3.20715
head 8.79426 0.595365 -1.18361
rclavicle 3.57812e-015 -1.78906e-014
rhumerus -36.6854 -15.0312 -79.5842
rradius 16.5547
rwrist 15.1009
rhand -28.741 -17.7717
rfingers 7.12502
rthumb -2.10154 -47.7411
lclavicle 3.57812e-015 -1.78906e-014
lhumerus -21.4548 -11.653 93.647
lradius 32.7734
lwrist 13.8784
lhand -32.5589 16.1409
lfingers 7.12502
lthumb -5.78834 46.0418
rfemur -32.7638 0.768048 18.1501
rtibia 45.3774
rfoot -17.0115 -22.8971
rtoes -9.66591
lfemur -0.74165 -5.9443 -31.5455
ltibia 17.775
lfoot -15.2119 8.86006
ltoes -8.12536
3559
root 2.27543 15.5744 -2.84369 5450.16 -95.8213 -5447.12
lowerback 4.40183 0.809255 -8.38578
upperback -1.90239 0.558138 0.308447
thorax -4.55815 0.52423 4.9888
lowerneck -15.895 1.20879 1.88404
upperneck 19.4506 1.76171 -3.20219
head 8.74806 0.566262 -1.19359
rclavicle -9.54166e-015 1.2921e-014
rhumerus -36.0444 -15.1391 -79.912
rradius 16.4974
rwrist 15.1729
rhand -28.874 -17.7079
rfingers 7.12502
rthumb -2.23004 -47.676
lclavicle -9.54166e-015 1.2921e-014
lhumerus -21.5785 -11.5794 93.6422
lradius 32.6551
lwrist 13.7846
lhand -32.4586 16.1802
lfingers 7.12502
lthumb -5.69155 46.0837
rfemur -32.9661 1.003 18.0546
rtibia 42.9064
rfoot -16.4325 -22.2274
rtoes -11.1463
lfemur 0.217498 -5.92363 -31.6793
ltibia 16.7016
lfoot -14.9769 8.67737
ltoes -8.76286
